<svg id="SvgjsSvg1117" width="288" height="288" xmlns="http://www.w3.org/2000/svg" version="1.1" xmlns:xlink="http://www.w3.org/1999/xlink" xmlns:svgjs="http://svgjs.com/svgjs"><defs id="SvgjsDefs1118"></defs><g id="SvgjsG1119"><svg xmlns="http://www.w3.org/2000/svg" viewBox="0 0 32 32" width="288" height="288"><path fill="#ff062e" d="m26.852 15.281-9.848-9.848a1.453 1.453 0 0 0-2.054 0l-2.045 2.045 2.594 2.594a1.725 1.725 0 0 1 2.185 2.199l2.5 2.5a1.728 1.728 0 1 1-1.035.974l-2.332-2.332v6.136a1.73 1.73 0 1 1-1.421-.05v-6.193a1.729 1.729 0 0 1-.938-2.266l-2.557-2.558-6.753 6.752a1.454 1.454 0 0 0 0 2.055l9.849 9.848a1.453 1.453 0 0 0 2.054 0l9.802-9.802a1.454 1.454 0 0 0 0-2.055z" class="color444 svgShape"></path></svg></g></svg>