<svg id="SvgjsSvg1017" width="288" height="288" xmlns="http://www.w3.org/2000/svg" version="1.1" xmlns:xlink="http://www.w3.org/1999/xlink" xmlns:svgjs="http://svgjs.com/svgjs"><defs id="SvgjsDefs1018"></defs><g id="SvgjsG1019"><svg xmlns="http://www.w3.org/2000/svg" xmlns:svgjs="http://svgjs.com/svgjs" xmlns:xlink="http://www.w3.org/1999/xlink" viewBox="0 0 288 288" width="288" height="288"><svg xmlns="http://www.w3.org/2000/svg" viewBox="0 0 32 32" width="288" height="288"><path fill="#ff7400" d="m4.665 3.411 2.063 23.176 9.258 2.574 9.284-2.578 2.065-23.172H4.664zm4.286 5.5-.068-.763h7.107v2.842h-4.005l.259 2.911h3.746v2.842H9.649L8.951 8.91zm13.567 5.754-.667 7.483-.043.48-5.822 1.616-5.814-1.616-.398-4.463h2.849l.202 2.267 3.163.854 3.165-.856.329-3.686h-3.485v-2.842h6.587l-.069.763zm.514-5.754-.129 1.441-.057.639H16V8.149h7.1l-.068.762z" class="color444 svgShape color85203b"></path></svg></svg></g></svg>