<svg id="SvgjsSvg1097" width="288" height="288" xmlns="http://www.w3.org/2000/svg" version="1.1" xmlns:xlink="http://www.w3.org/1999/xlink" xmlns:svgjs="http://svgjs.com/svgjs"><defs id="SvgjsDefs1098"></defs><g id="SvgjsG1099"><svg xmlns="http://www.w3.org/2000/svg" viewBox="0 0 32 32" width="288" height="288"><path fill="#ff9105" d="M16 4.973c-6.248 0-11.313 5.065-11.313 11.313S9.752 27.599 16 27.599s11.313-5.065 11.313-11.313S22.248 4.973 16 4.973zm2.538 3.896a1.51 1.51 0 1 1 2.618 1.511 1.51 1.51 0 0 1-2.619-1.511zM16 9.724c.608 0 1.195.084 1.753.238.098.607.459 1.166 1.033 1.498s1.237.364 1.811.147a6.54 6.54 0 0 1 1.95 4.256l-2.152.032a4.412 4.412 0 0 0-6.252-3.611l-1.05-1.881a6.538 6.538 0 0 1 2.908-.679zm-7.693 8.072a1.51 1.51 0 1 1-.002-3.02 1.51 1.51 0 0 1 .002 3.02zm1.339.135c.477-.389.782-.981.782-1.645s-.305-1.256-.782-1.645a6.577 6.577 0 0 1 2.713-3.814l1.104 1.85c-1.135.799-1.876 2.117-1.876 3.61s.741 2.811 1.876 3.609l-1.104 1.85a6.568 6.568 0 0 1-2.713-3.815zm10.956 6.324a1.51 1.51 0 1 1-1.509-2.614 1.51 1.51 0 0 1 1.508 2.614zm-.005-3.291a2.12 2.12 0 0 0-2.844 1.645 6.542 6.542 0 0 1-4.661-.441l1.05-1.881a4.411 4.411 0 0 0 6.252-3.611l2.153.032a6.54 6.54 0 0 1-1.95 4.256z" class="color444 svgShape"></path></svg></g></svg>